# xmcd
#
# Track frame offsets:
#	150
#	12540
#	21767
#	35452
#	47015
#	58925
#	72680
#	87050
#	95932
#	108622
#	116945
#	129337
#	142730
#	156662
#
# Disc length: 2261
#
# Revision: 3
# Processed by: cddbd v1.5.1PL0 Copyright (c) Steve Scherf et al.
# Submitted via: NotifyCDPlayer(CDDB) 1.51.3
# Normalized: r2:DSWAP,DSETVAR1,TDELIM( - )
#
DISCID=cf08d30e
DTITLE=Various Artist - Memphis Blues
DYEAR=1900
DGENRE=
TTITLE0=Elmore James - Dust My Blues
TTITLE1=Smokey Hogg - Good Morning Little School Girl
TTITLE2=Howln' Wolf - Worried About My Baby
TTITLE3=Lightnin' Hopkins - Some Day Baby
TTITLE4=Walter Horton - Walter's Blues
TTITLE5=Bobby "Blue" Bland And Junior Parker - Love My Baby
TTITLE6=Joe Hill Louis - Western Union Man
TTITLE7=Elmore James - Standing At The Crossroads
TTITLE8=Smokey Hogg - Low Down Blues
TTITLE9=Howlin' Wolf - Ridin' In The Moonlight
TTITLE10=Walter Horton - Lonesome Dog Blues
TTITLE11=Walter Horton - Little Boy Blues
TTITLE12=Bobby "Blue" Bland - Driftin' From Town To Town
TTITLE13=Roy Hawkins - Strange Land
EXTD=
EXTT0=
EXTT1=
EXTT2=
EXTT3=
EXTT4=
EXTT5=
EXTT6=
EXTT7=
EXTT8=
EXTT9=
EXTT10=
EXTT11=
EXTT12=
EXTT13=
PLAYORDER=
